<svg width="4938" height="695" viewBox="0 0 4938 695" fill="none" xmlns="http://www.w3.org/2000/svg">
<path d="M429.815 286.488V4.89674L557.031 4.89674V694.744H429.815V413.152H126.693V694.744H1.42716e-05V4.89674L126.693 4.89674V286.488H429.815Z" fill="white"/>
<path d="M842.877 5.42015C889.645 5.42015 934.319 14.4925 976.899 32.6372C1019.48 50.7819 1056.13 75.2074 1086.84 105.914C1117.9 136.62 1142.51 173.259 1160.66 215.829C1178.81 258.399 1187.88 303.063 1187.88 349.82C1187.88 396.578 1178.81 441.242 1160.66 483.812C1142.51 526.382 1118.08 563.195 1087.36 594.25C1056.65 624.957 1020 649.382 977.423 667.527C934.843 685.672 890.168 694.744 843.4 694.744H604.149V4.89674L842.877 5.42015ZM843.4 568.08C903.431 568.08 954.737 546.795 997.317 504.225C1039.9 461.655 1061.19 410.361 1061.19 350.344C1061.19 290.327 1039.9 239.033 997.317 196.463C954.737 153.893 903.431 132.607 843.4 132.607H730.842V568.08H843.4Z" fill="white"/>
<path d="M1915.58 7.51376L1917.15 4.89674V694.744H1790.46V345.633L1575.81 587.446L1361.17 345.633V694.744H1234.47V4.89674L1236.04 7.51376V4.89674L1575.81 395.357L1915.58 4.89674V7.51376Z" fill="white"/>
<path d="M2089.91 694.744H1963.22V4.89674L2089.91 4.89674V694.744Z" fill="white"/>
<path d="M2330.87 0V406.744L2629.95 406.744V498.223L2239.37 498.223V0L2330.87 0Z" fill="white"/>
<path d="M2912.77 0.378014C2946.55 0.378014 2978.81 7.05627 3009.56 20.4128C3040.57 33.5173 3067.16 51.284 3089.34 73.7128C3111.53 95.8897 3129.17 122.351 3142.28 153.096C3155.64 183.841 3162.32 216.098 3162.32 249.868C3162.32 294.977 3151.1 336.685 3128.67 374.99C3106.48 413.044 3076.24 443.285 3037.92 465.714C2999.61 487.891 2957.89 498.979 2912.77 498.979C2878.99 498.979 2846.73 492.427 2815.98 479.322C2785.22 466.218 2758.76 448.577 2736.57 426.4C2714.39 403.971 2696.62 377.384 2683.26 346.639C2670.15 315.894 2663.6 283.637 2663.6 249.868C2663.6 204.758 2674.69 163.05 2696.87 124.745C2719.31 86.4393 2749.56 56.1982 2787.62 34.0213C2825.93 11.5924 2867.65 0.378014 2912.77 0.378014ZM2801.23 361.004C2831.98 391.749 2869.16 407.122 2912.77 407.122C2956.38 407.122 2993.56 391.749 3024.31 361.004C3055.06 330.259 3070.44 293.213 3070.44 249.868C3070.44 206.27 3054.94 169.098 3023.93 138.353C2993.18 107.608 2956.13 92.2355 2912.77 92.2355C2869.41 92.2355 2832.23 107.608 2801.23 138.353C2770.48 169.098 2755.1 206.27 2755.1 249.868C2755.1 293.213 2770.48 330.259 2801.23 361.004Z" fill="white"/>
<path d="M3450.43 92.2355C3406.07 92.2355 3368 107.608 3336.24 138.353C3304.74 169.098 3288.98 206.144 3288.98 249.49C3289.23 292.835 3305.11 329.881 3336.62 360.626C3368.13 391.371 3406.07 406.744 3450.43 406.744C3485.47 406.744 3517.35 396.411 3546.09 375.746L3611.88 441.899C3565 479.448 3511.18 498.223 3450.43 498.223C3415.9 498.223 3382.88 491.671 3351.37 478.566C3319.86 465.462 3292.76 447.821 3270.08 425.644C3247.39 403.467 3229.24 377.132 3215.63 346.639C3202.02 315.894 3195.21 283.637 3195.21 249.868V249.112C3195.21 215.342 3202.02 183.211 3215.63 152.718C3229.24 121.973 3247.39 95.5117 3270.08 73.3348C3292.76 50.906 3319.86 33.1393 3351.37 20.0348C3382.88 6.93027 3415.9 0.378014 3450.43 0.378014C3511.18 0.378014 3565 19.1527 3611.88 56.7022L3546.09 122.855C3517.61 102.442 3485.72 92.2355 3450.43 92.2355Z" fill="white"/>
<path d="M3935.54 0.378014L4055.02 0L3905.67 181.825L4047.83 498.223H3940.45L3836.09 266.878L3645.91 498.223V0L3737.41 0V235.125L3935.54 0.378014Z" fill="white"/>
<path d="M4089.04 0L4479.62 0.378014V92.2355L4180.55 92.2355V203.372L4479.62 203.372V294.851L4180.55 294.851V406.744L4479.62 406.744V498.223L4089.04 498.223V0Z" fill="white"/>
<path d="M4925.03 147.804C4925.03 174.517 4918.35 199.214 4904.99 221.895C4891.63 244.575 4873.73 262.342 4851.3 275.195L4932.59 498.223H4841.09L4766.98 294.851H4604.78V498.223H4513.28V0L4777.57 0.378014C4818.15 0.378014 4852.81 14.8686 4881.55 43.8497C4910.53 72.5788 4925.03 107.23 4925.03 147.804ZM4604.78 92.2355V203.372L4777.95 203.372C4793.32 203.372 4806.43 197.954 4817.27 187.117C4828.11 176.281 4833.53 163.176 4833.53 147.804C4833.53 132.431 4828.11 119.327 4817.27 108.49C4806.43 97.6537 4793.32 92.2355 4777.95 92.2355H4604.78Z" fill="white"/>
<path d="M4346.13 526.243C4359.86 526.243 4371.63 531.105 4381.45 540.828C4391.26 550.552 4396.16 562.28 4396.16 576.013C4396.16 589.319 4391.56 600.791 4382.34 610.429C4391.56 620.068 4396.16 631.54 4396.16 644.846C4396.16 658.579 4391.26 670.307 4381.45 680.031C4371.63 689.754 4359.86 694.616 4346.13 694.616H4266.01V663.526H4346.25C4351.46 663.526 4355.89 661.692 4359.56 658.024C4363.23 654.357 4365.07 649.921 4365.07 644.718C4365.07 639.515 4363.23 635.08 4359.56 631.412C4355.98 627.744 4351.59 625.911 4346.38 625.911H4308.37V594.948H4346.38C4351.59 594.948 4355.98 593.114 4359.56 589.447C4363.23 585.779 4365.07 581.344 4365.07 576.141C4365.07 570.938 4363.23 566.502 4359.56 562.834C4355.89 559.167 4351.46 557.333 4346.25 557.333H4266.01V526.243H4346.13Z" fill="white"/>
<path d="M4492.14 526.243C4503.57 526.243 4514.49 528.503 4524.9 533.024C4535.4 537.459 4544.4 543.472 4551.91 551.064C4559.41 558.57 4565.39 567.526 4569.82 577.932C4574.34 588.338 4576.6 599.256 4576.6 610.685C4576.6 625.953 4572.81 640.07 4565.21 653.035C4557.71 665.914 4547.47 676.15 4534.5 683.741C4521.53 691.247 4507.41 695 4492.14 695C4480.71 695 4469.79 692.782 4459.38 688.347C4448.97 683.912 4440.01 677.941 4432.51 670.435C4425 662.844 4418.98 653.845 4414.46 643.439C4410.03 633.033 4407.81 622.115 4407.81 610.685C4407.81 595.417 4411.56 581.301 4419.07 568.336C4426.66 555.371 4436.9 545.136 4449.78 537.63C4462.75 530.038 4476.87 526.243 4492.14 526.243ZM4454.39 648.301C4464.8 658.707 4477.38 663.91 4492.14 663.91C4506.9 663.91 4519.49 658.707 4529.89 648.301C4540.3 637.895 4545.51 625.356 4545.51 610.685C4545.51 595.929 4540.26 583.348 4529.77 572.942C4519.36 562.536 4506.82 557.333 4492.14 557.333C4477.47 557.333 4464.88 562.536 4454.39 572.942C4443.98 583.348 4438.78 595.929 4438.78 610.685C4438.78 625.356 4443.98 637.895 4454.39 648.301Z" fill="white"/>
<path d="M4672.84 526.243C4684.27 526.243 4695.19 528.503 4705.6 533.024C4716.09 537.459 4725.1 543.472 4732.6 551.064C4740.11 558.57 4746.08 567.526 4750.52 577.932C4755.04 588.338 4757.3 599.256 4757.3 610.685C4757.3 625.953 4753.51 640.07 4745.91 653.035C4738.4 665.914 4728.17 676.15 4715.2 683.741C4702.23 691.247 4688.11 695 4672.84 695C4661.41 695 4650.49 692.782 4640.08 688.347C4629.67 683.912 4620.71 677.941 4613.2 670.435C4605.7 662.844 4599.68 653.845 4595.16 643.439C4590.72 633.033 4588.51 622.115 4588.51 610.685C4588.51 595.417 4592.26 581.301 4599.77 568.336C4607.36 555.371 4617.6 545.136 4630.48 537.63C4643.45 530.038 4657.57 526.243 4672.84 526.243ZM4635.09 648.301C4645.5 658.707 4658.08 663.91 4672.84 663.91C4687.6 663.91 4700.18 658.707 4710.59 648.301C4721 637.895 4726.2 625.356 4726.2 610.685C4726.2 595.929 4720.96 583.348 4710.46 572.942C4700.06 562.536 4687.51 557.333 4672.84 557.333C4658.17 557.333 4645.58 562.536 4635.09 572.942C4624.68 583.348 4619.48 595.929 4619.48 610.685C4619.48 625.356 4624.68 637.895 4635.09 648.301Z" fill="white"/>
<path d="M4853.54 526.243C4864.97 526.243 4875.89 528.503 4886.3 533.024C4896.79 537.459 4905.79 543.472 4913.3 551.064C4920.81 558.57 4926.78 567.526 4931.22 577.932C4935.74 588.338 4938 599.256 4938 610.685C4938 625.953 4934.2 640.07 4926.61 653.035C4919.1 665.914 4908.86 676.15 4895.9 683.741C4882.93 691.247 4868.81 695 4853.54 695C4842.11 695 4831.19 692.782 4820.78 688.347C4810.37 683.912 4801.41 677.941 4793.9 670.435C4786.39 662.844 4780.38 653.845 4775.86 643.439C4771.42 633.033 4769.2 622.115 4769.2 610.685C4769.2 595.417 4772.96 581.301 4780.47 568.336C4788.06 555.371 4798.3 545.136 4811.18 537.63C4824.15 530.038 4838.27 526.243 4853.54 526.243ZM4815.79 648.301C4826.19 658.707 4838.78 663.91 4853.54 663.91C4868.3 663.91 4880.88 658.707 4891.29 648.301C4901.7 637.895 4906.9 625.356 4906.9 610.685C4906.9 595.929 4901.66 583.348 4891.16 572.942C4880.75 562.536 4868.21 557.333 4853.54 557.333C4838.86 557.333 4826.28 562.536 4815.79 572.942C4805.38 583.348 4800.17 595.929 4800.17 610.685C4800.17 625.356 4805.38 637.895 4815.79 648.301Z" fill="white"/>
</svg>
